<mxfile host="app.diagrams.net" modified="2023-09-20T04:43:13.783Z" agent="Mozilla/5.0 (Windows NT 10.0; Win64; x64) AppleWebKit/537.36 (KHTML, like Gecko) Chrome/117.0.0.0 Safari/537.36" etag="pEnyYRm2EFMz7hOgR30m" version="21.7.5" type="google">
  <diagram name="PÃ¡gina-1" id="j7S8SlBo9D89yJKtXWfO">
    <mxGraphModel grid="1" page="1" gridSize="10" guides="1" tooltips="1" connect="1" arrows="1" fold="1" pageScale="1" pageWidth="1200" pageHeight="1200" math="0" shadow="0">
      <root>
        <mxCell id="0" />
        <mxCell id="1" parent="0" />
        <mxCell id="tcoadiwkJfcuvUFEETJS-48" style="edgeStyle=orthogonalEdgeStyle;rounded=0;orthogonalLoop=1;jettySize=auto;html=1;exitX=1;exitY=0.75;exitDx=0;exitDy=0;entryX=0;entryY=0.5;entryDx=0;entryDy=0;" edge="1" parent="1" source="tcoadiwkJfcuvUFEETJS-1" target="tcoadiwkJfcuvUFEETJS-17">
          <mxGeometry relative="1" as="geometry" />
        </mxCell>
        <mxCell id="tcoadiwkJfcuvUFEETJS-49" style="edgeStyle=orthogonalEdgeStyle;rounded=0;orthogonalLoop=1;jettySize=auto;html=1;exitX=1;exitY=0;exitDx=0;exitDy=0;entryX=0;entryY=1;entryDx=0;entryDy=0;" edge="1" parent="1" source="tcoadiwkJfcuvUFEETJS-1" target="tcoadiwkJfcuvUFEETJS-19">
          <mxGeometry relative="1" as="geometry">
            <Array as="points">
              <mxPoint x="270" y="80" />
            </Array>
          </mxGeometry>
        </mxCell>
        <mxCell id="tcoadiwkJfcuvUFEETJS-50" style="edgeStyle=orthogonalEdgeStyle;rounded=0;orthogonalLoop=1;jettySize=auto;html=1;exitX=0.25;exitY=0;exitDx=0;exitDy=0;entryX=1;entryY=0.5;entryDx=0;entryDy=0;" edge="1" parent="1" source="tcoadiwkJfcuvUFEETJS-1" target="tcoadiwkJfcuvUFEETJS-38">
          <mxGeometry relative="1" as="geometry" />
        </mxCell>
        <mxCell id="tcoadiwkJfcuvUFEETJS-55" style="edgeStyle=orthogonalEdgeStyle;rounded=0;orthogonalLoop=1;jettySize=auto;html=1;exitX=0.5;exitY=1;exitDx=0;exitDy=0;" edge="1" parent="1" source="tcoadiwkJfcuvUFEETJS-1" target="tcoadiwkJfcuvUFEETJS-9">
          <mxGeometry relative="1" as="geometry" />
        </mxCell>
        <mxCell id="tcoadiwkJfcuvUFEETJS-59" style="edgeStyle=orthogonalEdgeStyle;rounded=0;orthogonalLoop=1;jettySize=auto;html=1;exitX=0;exitY=1;exitDx=0;exitDy=0;entryX=1;entryY=0.5;entryDx=0;entryDy=0;" edge="1" parent="1" source="tcoadiwkJfcuvUFEETJS-1" target="tcoadiwkJfcuvUFEETJS-44">
          <mxGeometry relative="1" as="geometry">
            <Array as="points">
              <mxPoint x="190" y="190" />
            </Array>
          </mxGeometry>
        </mxCell>
        <mxCell id="tcoadiwkJfcuvUFEETJS-1" value="" style="swimlane;startSize=0;" vertex="1" parent="1">
          <mxGeometry x="190" y="140" width="80" height="80" as="geometry" />
        </mxCell>
        <mxCell id="tcoadiwkJfcuvUFEETJS-12" value="Usuario" style="text;html=1;strokeColor=none;fillColor=none;align=center;verticalAlign=middle;whiteSpace=wrap;rounded=0;" vertex="1" parent="tcoadiwkJfcuvUFEETJS-1">
          <mxGeometry x="10" y="25" width="60" height="30" as="geometry" />
        </mxCell>
        <mxCell id="tcoadiwkJfcuvUFEETJS-57" style="edgeStyle=orthogonalEdgeStyle;rounded=0;orthogonalLoop=1;jettySize=auto;html=1;exitX=0;exitY=0.5;exitDx=0;exitDy=0;entryX=1;entryY=1;entryDx=0;entryDy=0;" edge="1" parent="1" source="tcoadiwkJfcuvUFEETJS-4" target="tcoadiwkJfcuvUFEETJS-1">
          <mxGeometry relative="1" as="geometry" />
        </mxCell>
        <mxCell id="tcoadiwkJfcuvUFEETJS-64" style="edgeStyle=orthogonalEdgeStyle;rounded=0;orthogonalLoop=1;jettySize=auto;html=1;exitX=0;exitY=1;exitDx=0;exitDy=0;entryX=0.5;entryY=0;entryDx=0;entryDy=0;" edge="1" parent="1" source="tcoadiwkJfcuvUFEETJS-4" target="tcoadiwkJfcuvUFEETJS-11">
          <mxGeometry relative="1" as="geometry">
            <Array as="points">
              <mxPoint x="500" y="280" />
            </Array>
          </mxGeometry>
        </mxCell>
        <mxCell id="tcoadiwkJfcuvUFEETJS-67" style="edgeStyle=orthogonalEdgeStyle;rounded=0;orthogonalLoop=1;jettySize=auto;html=1;exitX=0;exitY=0;exitDx=0;exitDy=0;entryX=0.5;entryY=1;entryDx=0;entryDy=0;" edge="1" parent="1" source="tcoadiwkJfcuvUFEETJS-4" target="tcoadiwkJfcuvUFEETJS-32">
          <mxGeometry relative="1" as="geometry">
            <Array as="points">
              <mxPoint x="560" y="200" />
            </Array>
          </mxGeometry>
        </mxCell>
        <mxCell id="tcoadiwkJfcuvUFEETJS-68" style="edgeStyle=orthogonalEdgeStyle;rounded=0;orthogonalLoop=1;jettySize=auto;html=1;exitX=0.75;exitY=0;exitDx=0;exitDy=0;entryX=0;entryY=1;entryDx=0;entryDy=0;" edge="1" parent="1" source="tcoadiwkJfcuvUFEETJS-4" target="tcoadiwkJfcuvUFEETJS-30">
          <mxGeometry relative="1" as="geometry">
            <Array as="points">
              <mxPoint x="640" y="110" />
            </Array>
          </mxGeometry>
        </mxCell>
        <mxCell id="tcoadiwkJfcuvUFEETJS-69" style="edgeStyle=orthogonalEdgeStyle;rounded=0;orthogonalLoop=1;jettySize=auto;html=1;exitX=1;exitY=0.5;exitDx=0;exitDy=0;entryX=0.5;entryY=1;entryDx=0;entryDy=0;" edge="1" parent="1" source="tcoadiwkJfcuvUFEETJS-4" target="tcoadiwkJfcuvUFEETJS-65">
          <mxGeometry relative="1" as="geometry" />
        </mxCell>
        <mxCell id="tcoadiwkJfcuvUFEETJS-4" value="" style="swimlane;startSize=0;" vertex="1" parent="1">
          <mxGeometry x="580" y="200" width="80" height="80" as="geometry" />
        </mxCell>
        <mxCell id="tcoadiwkJfcuvUFEETJS-13" value="Cuenta" style="text;html=1;strokeColor=none;fillColor=none;align=center;verticalAlign=middle;whiteSpace=wrap;rounded=0;" vertex="1" parent="tcoadiwkJfcuvUFEETJS-4">
          <mxGeometry x="10" y="25" width="60" height="30" as="geometry" />
        </mxCell>
        <mxCell id="tcoadiwkJfcuvUFEETJS-52" style="edgeStyle=orthogonalEdgeStyle;rounded=0;orthogonalLoop=1;jettySize=auto;html=1;exitX=1;exitY=0.75;exitDx=0;exitDy=0;entryX=0.5;entryY=0;entryDx=0;entryDy=0;" edge="1" parent="1" source="tcoadiwkJfcuvUFEETJS-9" target="tcoadiwkJfcuvUFEETJS-40">
          <mxGeometry relative="1" as="geometry" />
        </mxCell>
        <mxCell id="tcoadiwkJfcuvUFEETJS-53" style="edgeStyle=orthogonalEdgeStyle;rounded=0;orthogonalLoop=1;jettySize=auto;html=1;exitX=0;exitY=0.75;exitDx=0;exitDy=0;" edge="1" parent="1" source="tcoadiwkJfcuvUFEETJS-9" target="tcoadiwkJfcuvUFEETJS-34">
          <mxGeometry relative="1" as="geometry" />
        </mxCell>
        <mxCell id="tcoadiwkJfcuvUFEETJS-9" value="" style="swimlane;startSize=0;" vertex="1" parent="1">
          <mxGeometry x="160" y="370" width="80" height="80" as="geometry" />
        </mxCell>
        <mxCell id="tcoadiwkJfcuvUFEETJS-14" value="Tipo Usuario" style="text;html=1;strokeColor=none;fillColor=none;align=center;verticalAlign=middle;whiteSpace=wrap;rounded=0;" vertex="1" parent="tcoadiwkJfcuvUFEETJS-9">
          <mxGeometry x="10" y="25" width="60" height="30" as="geometry" />
        </mxCell>
        <mxCell id="tcoadiwkJfcuvUFEETJS-70" style="edgeStyle=orthogonalEdgeStyle;rounded=0;orthogonalLoop=1;jettySize=auto;html=1;exitX=0;exitY=0.5;exitDx=0;exitDy=0;entryX=0.5;entryY=1;entryDx=0;entryDy=0;" edge="1" parent="1" source="tcoadiwkJfcuvUFEETJS-10" target="tcoadiwkJfcuvUFEETJS-4">
          <mxGeometry relative="1" as="geometry" />
        </mxCell>
        <mxCell id="tcoadiwkJfcuvUFEETJS-85" style="edgeStyle=orthogonalEdgeStyle;rounded=0;orthogonalLoop=1;jettySize=auto;html=1;exitX=0.75;exitY=1;exitDx=0;exitDy=0;entryX=0.5;entryY=0;entryDx=0;entryDy=0;" edge="1" parent="1" source="tcoadiwkJfcuvUFEETJS-10" target="tcoadiwkJfcuvUFEETJS-77">
          <mxGeometry relative="1" as="geometry" />
        </mxCell>
        <mxCell id="tcoadiwkJfcuvUFEETJS-86" style="edgeStyle=orthogonalEdgeStyle;rounded=0;orthogonalLoop=1;jettySize=auto;html=1;exitX=0;exitY=1;exitDx=0;exitDy=0;entryX=0.5;entryY=0;entryDx=0;entryDy=0;" edge="1" parent="1" source="tcoadiwkJfcuvUFEETJS-10" target="tcoadiwkJfcuvUFEETJS-71">
          <mxGeometry relative="1" as="geometry">
            <Array as="points">
              <mxPoint x="720" y="425" />
            </Array>
          </mxGeometry>
        </mxCell>
        <mxCell id="tcoadiwkJfcuvUFEETJS-87" style="edgeStyle=orthogonalEdgeStyle;rounded=0;orthogonalLoop=1;jettySize=auto;html=1;exitX=1;exitY=0.75;exitDx=0;exitDy=0;entryX=0;entryY=0.5;entryDx=0;entryDy=0;" edge="1" parent="1" source="tcoadiwkJfcuvUFEETJS-10" target="tcoadiwkJfcuvUFEETJS-75">
          <mxGeometry relative="1" as="geometry" />
        </mxCell>
        <mxCell id="tcoadiwkJfcuvUFEETJS-88" style="edgeStyle=orthogonalEdgeStyle;rounded=0;orthogonalLoop=1;jettySize=auto;html=1;exitX=0.5;exitY=0;exitDx=0;exitDy=0;entryX=0;entryY=0.5;entryDx=0;entryDy=0;" edge="1" parent="1" source="tcoadiwkJfcuvUFEETJS-10" target="tcoadiwkJfcuvUFEETJS-73">
          <mxGeometry relative="1" as="geometry" />
        </mxCell>
        <mxCell id="tcoadiwkJfcuvUFEETJS-10" value="" style="swimlane;startSize=0;" vertex="1" parent="1">
          <mxGeometry x="740" y="345" width="80" height="80" as="geometry" />
        </mxCell>
        <mxCell id="tcoadiwkJfcuvUFEETJS-16" value="Transacciones" style="text;html=1;strokeColor=none;fillColor=none;align=center;verticalAlign=middle;whiteSpace=wrap;rounded=0;" vertex="1" parent="tcoadiwkJfcuvUFEETJS-10">
          <mxGeometry x="10" y="25" width="60" height="30" as="geometry" />
        </mxCell>
        <mxCell id="tcoadiwkJfcuvUFEETJS-61" style="edgeStyle=orthogonalEdgeStyle;rounded=0;orthogonalLoop=1;jettySize=auto;html=1;exitX=0;exitY=0.5;exitDx=0;exitDy=0;entryX=0.5;entryY=0;entryDx=0;entryDy=0;" edge="1" parent="1" source="tcoadiwkJfcuvUFEETJS-11" target="tcoadiwkJfcuvUFEETJS-42">
          <mxGeometry relative="1" as="geometry" />
        </mxCell>
        <mxCell id="tcoadiwkJfcuvUFEETJS-63" style="edgeStyle=orthogonalEdgeStyle;rounded=0;orthogonalLoop=1;jettySize=auto;html=1;exitX=1;exitY=0.5;exitDx=0;exitDy=0;entryX=0.5;entryY=0;entryDx=0;entryDy=0;" edge="1" parent="1" source="tcoadiwkJfcuvUFEETJS-11" target="tcoadiwkJfcuvUFEETJS-21">
          <mxGeometry relative="1" as="geometry" />
        </mxCell>
        <mxCell id="tcoadiwkJfcuvUFEETJS-11" value="" style="swimlane;startSize=0;" vertex="1" parent="1">
          <mxGeometry x="460" y="410" width="80" height="80" as="geometry" />
        </mxCell>
        <mxCell id="tcoadiwkJfcuvUFEETJS-15" value="Tipo Cuenta" style="text;html=1;strokeColor=none;fillColor=none;align=center;verticalAlign=middle;whiteSpace=wrap;rounded=0;" vertex="1" parent="tcoadiwkJfcuvUFEETJS-11">
          <mxGeometry x="10" y="25" width="60" height="30" as="geometry" />
        </mxCell>
        <mxCell id="tcoadiwkJfcuvUFEETJS-17" value="" style="ellipse;whiteSpace=wrap;html=1;" vertex="1" parent="1">
          <mxGeometry x="350" y="115" width="100" height="70" as="geometry" />
        </mxCell>
        <mxCell id="tcoadiwkJfcuvUFEETJS-18" value="NÂ°TelÃ©fono" style="text;html=1;strokeColor=none;fillColor=none;align=center;verticalAlign=middle;whiteSpace=wrap;rounded=0;" vertex="1" parent="1">
          <mxGeometry x="370" y="135" width="60" height="30" as="geometry" />
        </mxCell>
        <mxCell id="tcoadiwkJfcuvUFEETJS-19" value="" style="ellipse;whiteSpace=wrap;html=1;" vertex="1" parent="1">
          <mxGeometry x="270" y="20" width="100" height="70" as="geometry" />
        </mxCell>
        <mxCell id="tcoadiwkJfcuvUFEETJS-20" value="Nombre" style="text;html=1;strokeColor=none;fillColor=none;align=center;verticalAlign=middle;whiteSpace=wrap;rounded=0;" vertex="1" parent="1">
          <mxGeometry x="290" y="40" width="60" height="30" as="geometry" />
        </mxCell>
        <mxCell id="tcoadiwkJfcuvUFEETJS-21" value="" style="ellipse;whiteSpace=wrap;html=1;" vertex="1" parent="1">
          <mxGeometry x="520" y="535" width="100" height="70" as="geometry" />
        </mxCell>
        <mxCell id="tcoadiwkJfcuvUFEETJS-22" value="DescripciÃ³n" style="text;html=1;strokeColor=none;fillColor=none;align=center;verticalAlign=middle;whiteSpace=wrap;rounded=0;" vertex="1" parent="1">
          <mxGeometry x="540" y="555" width="60" height="30" as="geometry" />
        </mxCell>
        <mxCell id="tcoadiwkJfcuvUFEETJS-30" value="" style="ellipse;whiteSpace=wrap;html=1;" vertex="1" parent="1">
          <mxGeometry x="640" y="50" width="100" height="70" as="geometry" />
        </mxCell>
        <mxCell id="tcoadiwkJfcuvUFEETJS-31" value="Estado" style="text;html=1;strokeColor=none;fillColor=none;align=center;verticalAlign=middle;whiteSpace=wrap;rounded=0;" vertex="1" parent="1">
          <mxGeometry x="660" y="70" width="60" height="30" as="geometry" />
        </mxCell>
        <mxCell id="tcoadiwkJfcuvUFEETJS-32" value="" style="ellipse;whiteSpace=wrap;html=1;" vertex="1" parent="1">
          <mxGeometry x="510" y="50" width="100" height="70" as="geometry" />
        </mxCell>
        <mxCell id="tcoadiwkJfcuvUFEETJS-33" value="N_Cuenta" style="text;html=1;strokeColor=none;fillColor=none;align=center;verticalAlign=middle;whiteSpace=wrap;rounded=0;" vertex="1" parent="1">
          <mxGeometry x="530" y="70" width="60" height="30" as="geometry" />
        </mxCell>
        <mxCell id="tcoadiwkJfcuvUFEETJS-34" value="" style="ellipse;whiteSpace=wrap;html=1;" vertex="1" parent="1">
          <mxGeometry x="60" y="490" width="100" height="70" as="geometry" />
        </mxCell>
        <mxCell id="tcoadiwkJfcuvUFEETJS-35" value="Id_TUsu" style="text;html=1;strokeColor=none;fillColor=none;align=center;verticalAlign=middle;whiteSpace=wrap;rounded=0;" vertex="1" parent="1">
          <mxGeometry x="80" y="510" width="60" height="30" as="geometry" />
        </mxCell>
        <mxCell id="tcoadiwkJfcuvUFEETJS-38" value="" style="ellipse;whiteSpace=wrap;html=1;" vertex="1" parent="1">
          <mxGeometry x="70" y="20" width="100" height="70" as="geometry" />
        </mxCell>
        <mxCell id="tcoadiwkJfcuvUFEETJS-39" value="Correo" style="text;html=1;strokeColor=none;fillColor=none;align=center;verticalAlign=middle;whiteSpace=wrap;rounded=0;" vertex="1" parent="1">
          <mxGeometry x="90" y="40" width="60" height="30" as="geometry" />
        </mxCell>
        <mxCell id="tcoadiwkJfcuvUFEETJS-40" value="" style="ellipse;whiteSpace=wrap;html=1;" vertex="1" parent="1">
          <mxGeometry x="250" y="490" width="100" height="70" as="geometry" />
        </mxCell>
        <mxCell id="tcoadiwkJfcuvUFEETJS-41" value="DescripciÃ³n" style="text;html=1;strokeColor=none;fillColor=none;align=center;verticalAlign=middle;whiteSpace=wrap;rounded=0;" vertex="1" parent="1">
          <mxGeometry x="270" y="510" width="60" height="30" as="geometry" />
        </mxCell>
        <mxCell id="tcoadiwkJfcuvUFEETJS-42" value="" style="ellipse;whiteSpace=wrap;html=1;" vertex="1" parent="1">
          <mxGeometry x="380" y="530" width="100" height="70" as="geometry" />
        </mxCell>
        <mxCell id="tcoadiwkJfcuvUFEETJS-43" value="Id_TCue" style="text;html=1;strokeColor=none;fillColor=none;align=center;verticalAlign=middle;whiteSpace=wrap;rounded=0;" vertex="1" parent="1">
          <mxGeometry x="400" y="550" width="60" height="30" as="geometry" />
        </mxCell>
        <mxCell id="tcoadiwkJfcuvUFEETJS-44" value="" style="ellipse;whiteSpace=wrap;html=1;" vertex="1" parent="1">
          <mxGeometry x="30" y="155" width="100" height="70" as="geometry" />
        </mxCell>
        <mxCell id="tcoadiwkJfcuvUFEETJS-45" value="Id_Usuario" style="text;html=1;strokeColor=none;fillColor=none;align=center;verticalAlign=middle;whiteSpace=wrap;rounded=0;" vertex="1" parent="1">
          <mxGeometry x="50" y="175" width="60" height="30" as="geometry" />
        </mxCell>
        <mxCell id="tcoadiwkJfcuvUFEETJS-65" value="" style="ellipse;whiteSpace=wrap;html=1;" vertex="1" parent="1">
          <mxGeometry x="720" y="135" width="100" height="70" as="geometry" />
        </mxCell>
        <mxCell id="tcoadiwkJfcuvUFEETJS-66" value="DescripciÃ³n" style="text;html=1;strokeColor=none;fillColor=none;align=center;verticalAlign=middle;whiteSpace=wrap;rounded=0;" vertex="1" parent="1">
          <mxGeometry x="740" y="155" width="60" height="30" as="geometry" />
        </mxCell>
        <mxCell id="tcoadiwkJfcuvUFEETJS-71" value="" style="ellipse;whiteSpace=wrap;html=1;" vertex="1" parent="1">
          <mxGeometry x="670" y="465" width="100" height="70" as="geometry" />
        </mxCell>
        <mxCell id="tcoadiwkJfcuvUFEETJS-72" value="Id_Trans" style="text;html=1;strokeColor=none;fillColor=none;align=center;verticalAlign=middle;whiteSpace=wrap;rounded=0;" vertex="1" parent="1">
          <mxGeometry x="690" y="485" width="60" height="30" as="geometry" />
        </mxCell>
        <mxCell id="tcoadiwkJfcuvUFEETJS-73" value="" style="ellipse;whiteSpace=wrap;html=1;" vertex="1" parent="1">
          <mxGeometry x="870" y="270" width="100" height="70" as="geometry" />
        </mxCell>
        <mxCell id="tcoadiwkJfcuvUFEETJS-74" value="Fecha" style="text;html=1;strokeColor=none;fillColor=none;align=center;verticalAlign=middle;whiteSpace=wrap;rounded=0;" vertex="1" parent="1">
          <mxGeometry x="890" y="290" width="60" height="30" as="geometry" />
        </mxCell>
        <mxCell id="tcoadiwkJfcuvUFEETJS-75" value="" style="ellipse;whiteSpace=wrap;html=1;" vertex="1" parent="1">
          <mxGeometry x="870" y="370" width="100" height="70" as="geometry" />
        </mxCell>
        <mxCell id="tcoadiwkJfcuvUFEETJS-76" value="Descripcion" style="text;html=1;strokeColor=none;fillColor=none;align=center;verticalAlign=middle;whiteSpace=wrap;rounded=0;" vertex="1" parent="1">
          <mxGeometry x="890" y="390" width="60" height="30" as="geometry" />
        </mxCell>
        <mxCell id="tcoadiwkJfcuvUFEETJS-83" style="edgeStyle=orthogonalEdgeStyle;rounded=0;orthogonalLoop=1;jettySize=auto;html=1;exitX=0;exitY=1;exitDx=0;exitDy=0;entryX=0.5;entryY=0;entryDx=0;entryDy=0;" edge="1" parent="1" source="tcoadiwkJfcuvUFEETJS-77" target="tcoadiwkJfcuvUFEETJS-81">
          <mxGeometry relative="1" as="geometry">
            <Array as="points">
              <mxPoint x="850" y="630" />
            </Array>
          </mxGeometry>
        </mxCell>
        <mxCell id="tcoadiwkJfcuvUFEETJS-84" style="edgeStyle=orthogonalEdgeStyle;rounded=0;orthogonalLoop=1;jettySize=auto;html=1;exitX=1;exitY=1;exitDx=0;exitDy=0;entryX=0.5;entryY=0;entryDx=0;entryDy=0;" edge="1" parent="1" source="tcoadiwkJfcuvUFEETJS-77" target="tcoadiwkJfcuvUFEETJS-79">
          <mxGeometry relative="1" as="geometry">
            <Array as="points">
              <mxPoint x="990" y="630" />
            </Array>
          </mxGeometry>
        </mxCell>
        <mxCell id="tcoadiwkJfcuvUFEETJS-77" value="" style="swimlane;startSize=0;" vertex="1" parent="1">
          <mxGeometry x="880" y="550" width="80" height="80" as="geometry" />
        </mxCell>
        <mxCell id="tcoadiwkJfcuvUFEETJS-78" value="Tipo TransacciÃ³n" style="text;html=1;strokeColor=none;fillColor=none;align=center;verticalAlign=middle;whiteSpace=wrap;rounded=0;" vertex="1" parent="tcoadiwkJfcuvUFEETJS-77">
          <mxGeometry x="10" y="25" width="60" height="30" as="geometry" />
        </mxCell>
        <mxCell id="tcoadiwkJfcuvUFEETJS-79" value="" style="ellipse;whiteSpace=wrap;html=1;" vertex="1" parent="1">
          <mxGeometry x="940" y="695" width="100" height="70" as="geometry" />
        </mxCell>
        <mxCell id="tcoadiwkJfcuvUFEETJS-80" value="DescripciÃ³n" style="text;html=1;strokeColor=none;fillColor=none;align=center;verticalAlign=middle;whiteSpace=wrap;rounded=0;" vertex="1" parent="1">
          <mxGeometry x="960" y="715" width="60" height="30" as="geometry" />
        </mxCell>
        <mxCell id="tcoadiwkJfcuvUFEETJS-81" value="" style="ellipse;whiteSpace=wrap;html=1;" vertex="1" parent="1">
          <mxGeometry x="800" y="690" width="100" height="70" as="geometry" />
        </mxCell>
        <mxCell id="tcoadiwkJfcuvUFEETJS-82" value="Id_TTransac" style="text;html=1;strokeColor=none;fillColor=none;align=center;verticalAlign=middle;whiteSpace=wrap;rounded=0;" vertex="1" parent="1">
          <mxGeometry x="820" y="710" width="60" height="30" as="geometry" />
        </mxCell>
        <mxCell id="tcoadiwkJfcuvUFEETJS-89" value="1:1" style="text;html=1;strokeColor=none;fillColor=none;align=center;verticalAlign=middle;whiteSpace=wrap;rounded=0;" vertex="1" parent="1">
          <mxGeometry x="170" y="260" width="60" height="30" as="geometry" />
        </mxCell>
        <mxCell id="tcoadiwkJfcuvUFEETJS-90" value="1:N" style="text;html=1;strokeColor=none;fillColor=none;align=center;verticalAlign=middle;whiteSpace=wrap;rounded=0;" vertex="1" parent="1">
          <mxGeometry x="400" y="210" width="60" height="30" as="geometry" />
        </mxCell>
        <mxCell id="tcoadiwkJfcuvUFEETJS-91" value="1:1" style="text;html=1;strokeColor=none;fillColor=none;align=center;verticalAlign=middle;whiteSpace=wrap;rounded=0;" vertex="1" parent="1">
          <mxGeometry x="490" y="330" width="60" height="30" as="geometry" />
        </mxCell>
        <mxCell id="tcoadiwkJfcuvUFEETJS-92" value="2:N" style="text;html=1;strokeColor=none;fillColor=none;align=center;verticalAlign=middle;whiteSpace=wrap;rounded=0;" vertex="1" parent="1">
          <mxGeometry x="620" y="345" width="60" height="30" as="geometry" />
        </mxCell>
        <mxCell id="tcoadiwkJfcuvUFEETJS-93" value="1:1" style="text;html=1;strokeColor=none;fillColor=none;align=center;verticalAlign=middle;whiteSpace=wrap;rounded=0;" vertex="1" parent="1">
          <mxGeometry x="840" y="490" width="60" height="30" as="geometry" />
        </mxCell>
      </root>
    </mxGraphModel>
  </diagram>
</mxfile>
